<svg width="56" height="48" viewBox="0 0 56 48" fill="none" xmlns="http://www.w3.org/2000/svg">
<path fill-rule="evenodd" clip-rule="evenodd" d="M21.0702 23.2755C19.576 21.6621 18.753 19.5363 18.7696 17.3336V17.3865C18.7703 13.509 21.3392 10.1044 25.058 9.05316C28.7779 8.00159 32.7406 9.56125 34.7569 12.8704C36.7731 16.1796 36.3509 20.4309 33.7235 23.2755L37.3147 30.4705L37.0341 30.6817L27.3968 16.5169L17.7596 30.6817L17.465 30.4705L21.0702 23.2755ZM20.784 1.32286C14.3369 4.0079 10.1366 10.3272 10.1423 17.3333C10.15 26.8926 17.8728 34.6379 27.3968 34.6379C34.3768 34.6379 40.6693 30.4168 43.3392 23.9435C46.009 17.4702 44.5302 10.0201 39.5926 5.06806C34.6549 0.116051 27.2311 -1.36219 20.784 1.32286ZM37.3426 47.8019H39.3206L39.3066 38.7624H37.1462V42.3528C36.6436 41.6909 35.8406 41.3303 35.014 41.3954C33.4245 41.5442 32.2527 42.953 32.3907 44.5493C32.3907 46.4079 33.3446 47.9427 35.1963 47.9427C36.0974 47.979 36.9365 47.4836 37.3426 46.6755V47.8019ZM35.8557 46.2812C35.0421 46.2812 34.5511 45.6054 34.5511 44.6057C34.5122 44.2251 34.6292 43.845 34.8753 43.5528C35.1214 43.2607 35.4754 43.0816 35.8557 43.0568C36.6413 43.0568 37.1744 43.7327 37.1744 44.6901C37.2258 45.0798 37.1126 45.4733 36.8621 45.7755C36.6117 46.0777 36.2468 46.261 35.8557 46.2812ZM17.7034 47.8025V44.7753C17.7034 43.5925 17.2966 43.1983 16.7074 43.1983C15.8237 43.1983 15.3748 43.8178 15.3748 45.1555V47.8025H13.2144V38.763H15.3748V42.438C15.849 41.7525 16.6336 41.3508 17.4649 41.3679C18.1255 41.3266 18.7706 41.5801 19.2277 42.0606C19.6848 42.5411 19.9073 43.1996 19.8357 43.8601V47.7744L17.7034 47.8025ZM0.238477 45.8036L0.0561122 47.5777C0.840818 47.8341 1.65807 47.9764 2.48296 48.0001C4.33467 48.0001 6.15831 47.3524 6.15831 45.1841C6.15831 43.3843 4.76003 42.9929 3.6261 42.6756C2.85277 42.4592 2.2024 42.2772 2.2024 41.7062C2.2024 40.9318 3.14228 40.9318 3.70341 40.9318C4.34073 40.923 4.97241 41.0527 5.55511 41.312L5.77956 39.6505C5.08345 39.4407 4.36006 39.3363 3.63327 39.3408C1.9499 39.3408 0 39.904 0 41.9174C0 43.6889 1.33731 44.0942 2.45408 44.4326C3.25465 44.6752 3.94188 44.8835 3.94188 45.5361C3.94188 46.2119 3.24048 46.3527 2.53908 46.3527C1.73915 46.36 0.949516 46.1715 0.238477 45.8036ZM8.04038 42.2176C7.34605 42.8445 6.95209 43.7397 6.95793 44.6771C6.96207 45.5997 7.35147 46.4784 8.03142 47.0993C8.71136 47.7202 9.61954 48.0265 10.5351 47.9437C11.1308 47.9438 11.7227 47.8488 12.2886 47.6621V46.0569C11.8727 46.2564 11.4168 46.3576 10.9559 46.3526C10.5023 46.3755 10.0587 46.2135 9.72583 45.9033C9.39299 45.5931 9.19917 45.161 9.18839 44.7052C9.1565 44.2529 9.31669 43.8082 9.62939 43.4809C9.94208 43.1536 10.3781 42.9744 10.8297 42.9874C11.288 42.9703 11.7414 43.0877 12.1343 43.3254L12.2886 41.7484C11.7575 41.5009 11.1765 41.3804 10.5912 41.3964C9.66308 41.2918 8.73471 41.5906 8.04038 42.2176ZM21.1964 41.5789V47.8024L23.5297 47.8446V41.5789H21.1964ZM21.1964 38.9316V40.5227H23.5297V38.9316H21.1964ZM29.2625 47.803V44.7757C29.2625 43.593 28.8557 43.1987 28.2665 43.1987C27.3827 43.1987 26.8637 43.8183 26.8637 45.1559V47.803H24.7735V41.5795H26.7374V42.7341C27.1652 41.8816 28.0615 41.3708 29.01 41.4387C29.6716 41.3981 30.3176 41.6512 30.7767 42.1311C31.2359 42.6109 31.4619 43.269 31.3948 43.9309V47.8452L29.2625 47.803ZM40.8497 38.7918H42.996V47.7891H40.8497V38.7918ZM44.9748 42.2657C44.3343 42.8924 43.9962 43.7673 44.0481 44.6636C44.0422 45.601 44.4362 46.4961 45.1305 47.1231C45.8249 47.75 46.7532 48.0489 47.6813 47.9443C48.461 47.9532 49.2359 47.8197 49.9679 47.5501V46.0153C49.3816 46.3318 48.7258 46.4964 48.0601 46.494C47.008 46.494 46.3627 46.1702 46.2364 45.2972H50.529V44.903C50.529 43.0444 49.6873 41.397 47.3867 41.397C46.4953 41.322 45.6154 41.6389 44.9748 42.2657ZM48.6352 44.0724H46.2364C46.2364 43.3543 46.6152 42.7629 47.4429 42.7629C47.7854 42.742 48.119 42.8776 48.3506 43.1319C48.5821 43.3861 48.6867 43.7318 48.6352 44.0724ZM51.483 47.8027V41.5792H53.4329V42.7338C53.7043 41.9503 54.4442 41.4287 55.2705 41.4384C55.515 41.4459 55.7586 41.4694 56 41.5088L55.9018 43.3111C55.6634 43.2521 55.4176 43.2284 55.1724 43.2407C54.1623 43.2407 53.6012 43.9728 53.6012 45.1978V47.8449L51.483 47.8027Z" fill="#706F6F"/>
</svg>
