<svg width="126" height="57" viewBox="0 0 126 57" fill="none" xmlns="http://www.w3.org/2000/svg">
<path d="M0.0202298 25.3819C4.53148 29.4413 23.2441 46.1459 28.5038 50.7534C30.4459 52.4583 32.2261 52.3366 34.1681 50.591C39.8932 45.4761 84.4392 5.45 87.9188 2.50691C91.8838 -0.862427 96.3141 -0.842131 100.178 2.6084C105.357 7.21586 125 25.2398 125 25.2398C125 25.2398 125 29.5225 125 30.6997C123.28 29.218 98.155 6.60695 97.1638 5.73417C95.0396 3.82623 92.6323 3.78563 90.5082 5.73417C85.4709 10.301 42.4421 49.0484 37.2431 53.7574C33.804 56.8628 28.5443 56.7411 25.085 53.6153C17.2156 46.491 0 31.0651 0 31.0651" fill="white" fill-opacity="0.4"/>
</svg>
