<svg width="24" height="24" viewBox="0 0 24 24" fill="none" xmlns="http://www.w3.org/2000/svg">
<path d="M18.8977 4.18944C19.1499 3.93722 19.5585 3.93722 19.8107 4.18944C20.04 4.41873 20.0609 4.77742 19.8732 5.03026L19.8107 5.10253L12.9133 12L19.8107 18.8974C20.063 19.1497 20.063 19.5583 19.8107 19.8105C19.5815 20.0398 19.2228 20.0606 18.9699 19.873L18.8977 19.8105L12.0002 12.9131L5.10274 19.8105C4.85052 20.0628 4.44188 20.0628 4.18966 19.8105C3.96036 19.5812 3.93955 19.2226 4.12716 18.9697L4.18966 18.8974L11.0871 12L4.18966 5.10253C3.93743 4.85031 3.93743 4.44166 4.18966 4.18944C4.41895 3.96015 4.77763 3.93934 5.03048 4.12694L5.10274 4.18944L12.0002 11.0869L18.8977 4.18944Z" fill="black"/>
</svg>
