<svg width="24" height="24" viewBox="0 0 24 24" fill="none" xmlns="http://www.w3.org/2000/svg">
<path d="M23.4951 15.8564C23.7507 15.8564 23.9617 16.0466 23.9951 16.293L24 16.3613V22.7148C23.9998 22.9702 23.8098 23.1814 23.5635 23.2148L23.4951 23.2197H0.504883C0.249414 23.2197 0.0384013 23.0295 0.00488281 22.7832L0 22.7148V16.3613C0 16.0826 0.226108 15.8564 0.504883 15.8564C0.760375 15.8565 0.971464 16.0466 1.00488 16.293L1.00977 16.3613V22.21H22.9902V16.3613C22.9902 16.1058 23.1804 15.8948 23.4268 15.8613L23.4951 15.8564ZM12 0C12.2555 0 12.4666 0.190146 12.5 0.436523L12.5049 0.504883V16.8516L16.8721 12.4844C17.0691 12.2873 17.3888 12.2874 17.5859 12.4844C17.7651 12.6636 17.7814 12.944 17.6348 13.1416L17.5859 13.1982L12.3564 18.4277C12.2849 18.4991 12.1975 18.5449 12.1055 18.5645L12.0352 18.5742H11.9648C11.8711 18.5677 11.7783 18.5352 11.6992 18.4766L11.6436 18.4277L6.41406 13.1982C6.21694 13.0011 6.21694 12.6815 6.41406 12.4844C6.59327 12.3053 6.87375 12.289 7.07129 12.4355L7.12793 12.4844L11.4951 16.8516V0.504883C11.4951 0.226108 11.7212 0 12 0Z" fill="black"/>
</svg>
