<svg width="24" height="24" viewBox="0 0 24 24" fill="none" xmlns="http://www.w3.org/2000/svg">
<path d="M12 0C15.1826 0 18.2349 1.26421 20.4854 3.51465C22.7358 5.76508 24 8.8174 24 12C24 18.6274 18.6274 24 12 24C5.37258 24 0 18.6274 0 12C0 5.37258 5.37258 0 12 0ZM12 0.959961C5.90278 0.959961 0.959961 5.90278 0.959961 12C0.959961 18.0972 5.90278 23.04 12 23.04C18.0279 23.04 22.9275 18.2085 23.0381 12.207L23.04 12L23.0371 11.7344C22.969 8.90271 21.8143 6.20102 19.8066 4.19336C17.7362 2.12296 14.928 0.959961 12 0.959961ZM12.0195 9.59961C12.2726 9.59961 12.4824 9.78045 12.5156 10.0146L12.5195 10.0801V18.8027C12.5195 19.0678 12.2957 19.2832 12.0195 19.2832C11.7666 19.283 11.5575 19.1023 11.5244 18.8682L11.5195 18.8027V10.0801C11.5195 9.81513 11.7436 9.59985 12.0195 9.59961ZM12.0195 5.06836C12.2726 5.06836 12.4824 5.24923 12.5156 5.4834L12.5195 5.54883V6.60449C12.5195 6.86959 12.2957 7.08496 12.0195 7.08496C11.7666 7.08474 11.5575 6.90407 11.5244 6.66992L11.5195 6.60449V5.54883C11.5195 5.28388 11.7436 5.0686 12.0195 5.06836Z" fill="black"/>
</svg>
