<svg width="32" height="32" viewBox="0 0 32 32" fill="none" xmlns="http://www.w3.org/2000/svg">
<path fill-rule="evenodd" clip-rule="evenodd" d="M27.633 15.3375L27.6969 15.3336C27.7297 15.3333 27.762 15.3357 27.7934 15.3406L27.8535 15.3532L27.9239 15.3766L27.9945 15.4108L28.0583 15.4528L28.1183 15.5047L28.153 15.542L28.194 15.5963L31.8997 21.1271C32.0818 21.399 32.0091 21.7671 31.7372 21.9493C31.49 22.1149 31.1633 22.0698 30.9691 21.856L30.915 21.7868L28.1799 17.7036C27.8193 20.3331 26.6198 22.7948 24.7355 24.7084C22.4304 27.0492 19.2895 28.378 15.9985 28.4021C11.2996 28.3905 7.0205 25.6947 4.98123 21.4613C4.83919 21.1665 4.96308 20.8123 5.25793 20.6703C5.55278 20.5282 5.90694 20.6521 6.04898 20.947C7.89116 24.7712 11.7567 27.2064 15.9957 27.217C18.9664 27.1952 21.8066 25.9936 23.891 23.8768C25.7023 22.0373 26.8138 19.6379 27.0583 17.0913L22.5786 20.1827C22.3337 20.3517 22.0065 20.3112 21.8093 20.1001L21.7543 20.0316C21.5852 19.7868 21.6258 19.4595 21.8369 19.2624L21.9053 19.2073L27.365 15.4384L27.4063 15.4123L27.5059 15.3666L27.5797 15.3461L27.633 15.3375ZM26.9518 10.7862C27.0981 11.0789 26.9794 11.4348 26.6866 11.5812C26.3939 11.7275 26.0379 11.6088 25.8916 11.316C23.5835 6.69777 18.3928 4.28436 13.3741 5.49602C8.73362 6.61636 5.37637 10.5617 4.93879 15.2311L9.42188 12.1433C9.6669 11.9745 9.99413 12.0154 10.1911 12.2267L10.2461 12.2952C10.4148 12.5402 10.374 12.8674 10.1627 13.0644L10.0942 13.1193L4.63449 16.8803L4.59465 16.9055L4.53117 16.9374L4.45892 16.9629L4.38318 16.9789L4.34051 16.9835L4.25061 16.983L4.17365 16.9716L4.09712 16.9497L4.03912 16.9253L3.99074 16.8989L3.92775 16.8548L3.85574 16.7865L3.82186 16.7447L0.100346 11.1913C-0.0818227 10.9194 -0.00908637 10.5513 0.262807 10.3691C0.509983 10.2035 0.836659 10.2486 1.03088 10.4624L1.08496 10.5316L3.81737 14.61C4.4904 9.66584 8.12915 5.54307 13.0959 4.34394C18.6512 3.00274 24.3969 5.67417 26.9518 10.7862Z" fill="black"/>
</svg>
