<svg width="24" height="24" viewBox="0 0 24 24" fill="none" xmlns="http://www.w3.org/2000/svg">
<path d="M21.959 17.2715C22.2577 17.2715 22.5 17.5138 22.5 17.8125C22.5 18.0863 22.2962 18.3128 22.0322 18.3486L21.959 18.3535H2.04102C1.7423 18.3535 1.5 18.1112 1.5 17.8125C1.5 17.5387 1.70378 17.3122 1.96777 17.2764L2.04102 17.2715H21.959ZM21.959 11.6318C22.2576 11.6318 22.4999 11.8742 22.5 12.1729C22.5 12.4467 22.2962 12.6732 22.0322 12.709L21.959 12.7139H2.04102C1.7423 12.7139 1.5 12.4716 1.5 12.1729C1.50011 11.8991 1.70385 11.6725 1.96777 11.6367L2.04102 11.6318H21.959ZM21.959 6C22.2577 6 22.5 6.2423 22.5 6.54102C22.4999 6.81477 22.2962 7.04134 22.0322 7.07715L21.959 7.08203H2.04102C1.74235 7.08203 1.50008 6.83966 1.5 6.54102C1.5 6.2672 1.70378 6.0407 1.96777 6.00488L2.04102 6H21.959Z" fill="black"/>
</svg>
